<?xml version="1.0" encoding="utf-8"?>
<!-- Generator: Adobe Illustrator 24.1.0, SVG Export Plug-In . SVG Version: 6.00 Build 0)  -->
<svg version="1.1" id="Layer_1" xmlns="http://www.w3.org/2000/svg" xmlns:xlink="http://www.w3.org/1999/xlink" x="0px" y="0px"
	 viewBox="0 0 401.3 415.1" style="enable-background:new 0 0 401.3 415.1;" xml:space="preserve">
<style type="text/css">
	.st0{fill:none;}
	.st1{fill:#0065A1;}
	.st2{clip-path:url(#SVGID_2_);}
	.st3{fill:#F90000;}
	.st4{fill:#F97700;}
	.st5{fill:#F9D800;}
	.st6{fill:#1DAE00;}
	.st7{fill:#1D4FFF;}
	.st8{fill:#771FFC;}
	.st9{fill:#009ABF;}
	.st10{fill:#4AC1E0;}
</style>
<path class="st0" d="M174.2,189.1c0.7,0.5,1.3,0.9,1.9,1.4C175.5,190,174.8,189.5,174.2,189.1L174.2,189.1z"/>
<path class="st0" d="M295.4,211c0.5-1.9,1-3.9,1.5-5.8c0.3-1.2,0.5-2.3,0.8-3.5c-0.2,1.2-0.5,2.3-0.8,3.5
	C296.4,207.1,295.9,209,295.4,211z"/>
<path class="st0" d="M260.9,214c-1.9,0.4-3.8,0.9-5.6,1.5C257.1,214.9,259,214.4,260.9,214z"/>
<path class="st0" d="M255.2,215.5c-1.5,0.5-3,1-4.5,1.6C252.2,216.5,253.7,215.9,255.2,215.5z"/>
<path class="st0" d="M291.3,215.8c0.8,0.3,1.7,0.6,2.5,0.9c0.6-1.9,1.1-3.8,1.6-5.7c-0.5,1.9-1.1,3.8-1.6,5.7
	C293,216.4,292.2,216.1,291.3,215.8z"/>
<path class="st1" d="M156.4,179.6c-2-0.8-4.1-1.4-6.2-2C152.3,178.2,154.3,178.9,156.4,179.6c2.2,0.8,4.4,1.8,6.6,2.8
	C160.8,181.4,158.6,180.5,156.4,179.6L156.4,179.6z"/>
<g>
	<defs>
		<path id="SVGID_1_" d="M113.8,150.2c9.9-12,24.3-19.5,40.4-19.5c15.4,0,29.3,7,39.2,18.2c1.7-0.1,3.4-0.2,5.1-0.2c0.3,0,0.6,0,1,0
			c12.6,0.2,24.2,3.3,33.3,8.6c2-0.3,4.1-0.4,6.2-0.4c16,0,30.4,7.5,40.3,19.5c1.4-0.1,2.8-0.1,4.2-0.1c6.3,0,12.3,0.8,17.8,2.3
			c2-19,1.1-34.8,0.1-44.2l-31.8-14.7l-11.6-5.4v-12.8v-9.6l-58.6-13.2l0,0l-58.6,13.2v9.6v12.8l-11.6,5.4l-31.8,14.7
			c-0.4,3.9-0.8,9-1,14.9c2.2-0.4,4.4-0.6,6.6-0.6C106.8,148.6,110.4,149.2,113.8,150.2z"/>
	</defs>
	<clipPath id="SVGID_2_">
		<use xlink:href="#SVGID_1_"  style="overflow:visible;"/>
	</clipPath>
	<g class="st2">
		
			<rect x="41.2" y="73.5" transform="matrix(0.9284 -0.3715 0.3715 0.9284 -19.1464 72.3836)" class="st3" width="274.3" height="24.8"/>
		
			<rect x="50.3" y="96.3" transform="matrix(0.9284 -0.3715 0.3715 0.9284 -26.9573 77.4086)" class="st4" width="274.3" height="24.8"/>
		
			<rect x="59.5" y="119.1" transform="matrix(0.9284 -0.3715 0.3715 0.9284 -34.7683 82.4335)" class="st5" width="274.3" height="24.8"/>
		
			<rect x="68.6" y="141.9" transform="matrix(0.9284 -0.3715 0.3715 0.9284 -42.5793 87.4585)" class="st6" width="274.3" height="24.8"/>
		
			<rect x="77.7" y="164.6" transform="matrix(0.9284 -0.3715 0.3715 0.9284 -50.3902 92.4835)" class="st7" width="274.3" height="24.8"/>
		
			<rect x="86.9" y="187.4" transform="matrix(0.9284 -0.3715 0.3715 0.9284 -58.2012 97.5084)" class="st8" width="274.3" height="24.8"/>
	</g>
</g>
<path class="st1" d="M171.5,187.3c0.9,0.6,1.8,1.2,2.7,1.8h0C173.3,188.4,172.4,187.8,171.5,187.3z"/>
<path class="st9" d="M167.9,185.1c-1.6-0.9-3.3-1.8-5-2.6C164.6,183.3,166.3,184.1,167.9,185.1z"/>
<path class="st1" d="M319.8,120.8L278,101.5V75.8l-78.6-17.6l0,0l-78.6,17.6v25.7l-41.7,19.3c0,0-3.2,15.2-2.8,38.5
	c0.2,9.4,0.9,20.2,2.6,31.8c1.5,10,3.7,20.6,7,31.5c12.1,40.6,38.2,85.9,92.3,121.4c6.6,4.3,13.7,8.5,21.2,12.6l0,0l0,0
	c5.6-3,11-6.1,16.1-9.3c1.7-1.1,3.4-2.1,5-3.2c45.1-29.6,70.8-66,85-100.8c2.2-5.4,4.2-10.7,5.8-16c4.5-13.9,7.3-27.2,8.9-39.5
	C325.6,149,319.8,120.8,319.8,120.8z M301.3,178.6c-0.4,4.2-1,8.5-1.7,12.9c-0.4,2.5-0.9,5.1-1.4,7.6c-0.2,0.8-0.3,1.7-0.5,2.5
	c-0.2,1.2-0.5,2.3-0.8,3.5c-0.5,2-0.9,3.9-1.5,5.8s-1.1,3.8-1.6,5.7c-0.8-0.3-1.6-0.6-2.5-0.9c-3.3-1.1-6.8-1.9-10.4-2.4
	c-1.8-0.3-3.6-0.4-5.4-0.5c-0.9,0-1.8-0.1-2.8-0.1c-1.4,0-2.7,0-4,0.1s-2.7,0.2-4,0.4c-1.3,0.2-2.6,0.4-3.9,0.7
	c-1.9,0.4-3.8,0.9-5.6,1.5c-1.5,0.5-3,1-4.5,1.6c-1.5,0.6-2.9,1.3-4.3,2c-1.1,0.6-2.2,1.2-3.3,1.8c-2.4-1.9-4.9-3.6-7.5-5.1
	c-10.6-6.3-22.9-9.9-36.1-9.9c0,0,0,0,0,0c-2.5,0-5,0.1-7.4,0.4c-2.3-3-4.7-5.8-7.4-8.4c-1.3-1.3-2.7-2.6-4.1-3.8s-2.9-2.4-4.4-3.5
	c-0.6-0.5-1.3-0.9-1.9-1.4c-0.9-0.6-1.8-1.2-2.7-1.8c-1.2-0.8-2.4-1.5-3.6-2.2c-1.6-0.9-3.3-1.8-5-2.6c-2.1-1-4.3-2-6.6-2.8
	c-2-0.8-4.1-1.4-6.2-2c-3.5-1-7.1-1.8-10.7-2.3c-1.4-0.2-2.7-0.4-4.1-0.5c-2.4-0.2-4.9-0.3-7.4-0.3c-10.7,0-20.9,2.1-30.2,5.9
	c-0.3-2.9-0.6-5.8-0.8-8.6c-0.2-2.8-0.4-5.5-0.4-8.1c-0.1-3.9-0.2-7.6-0.1-11c0-1.1,0-2.3,0.1-3.3c0.2-5.9,0.6-10.9,1-14.9
	l31.8-14.7l11.6-5.4v-12.8v-9.6l58.6-13.2l0,0L258,91.9v9.6v12.8l11.6,5.4l31.8,14.7C302.5,143.8,303.3,159.6,301.3,178.6z"/>
<path class="st10" d="M199.4,148.7c-0.3,0-0.6,0-1,0c-1.7,0-3.4,0.1-5.1,0.2c-9.9-11.2-23.8-18.2-39.2-18.2
	c-16,0-30.4,7.5-40.4,19.5c-3.4-1-7-1.5-10.7-1.5c-2.3,0-4.5,0.2-6.6,0.6c0,1.1-0.1,2.2-0.1,3.3c0,3.4,0,7.1,0.1,11
	c0.1,2.6,0.2,5.3,0.4,8.1c0.2,2.8,0.5,5.7,0.8,8.6c9.3-3.8,19.5-5.9,30.2-5.9c2.5,0,5,0.1,7.4,0.3c1.4,0.1,2.8,0.3,4.1,0.5
	c3.7,0.5,7.2,1.3,10.7,2.3c2.1,0.6,4.1,1.3,6.2,2h0c7-3.7,14.9-5.7,23.3-5.7c6.4,0,12.6,1.2,18.3,3.4c0.5-0.6,1-1.2,1.5-1.8
	c8.6-9.9,20.2-16.6,33.3-18.2C223.6,152,212.1,148.8,199.4,148.7z"/>
<path class="st9" d="M283.5,176.2c-1.4,0-2.8,0.1-4.2,0.1c-9.9-12-24.3-19.5-40.3-19.5c-2.1,0-4.2,0.1-6.2,0.4
	c-13.1,1.6-24.8,8.3-33.3,18.2c-0.5,0.6-1,1.2-1.5,1.8c-5.7-2.2-11.8-3.4-18.3-3.4c-8.4,0-16.3,2.1-23.3,5.7
	c2.2,0.8,4.4,1.8,6.6,2.8c1.7,0.8,3.3,1.7,5,2.6c1.2,0.7,2.4,1.4,3.6,2.2c0.9,0.6,1.8,1.2,2.7,1.8c0.7,0.5,1.3,0.9,1.9,1.4
	c1.5,1.1,3,2.3,4.4,3.5s2.8,2.5,4.1,3.8c2.7,2.6,5.1,5.4,7.4,8.4c2.4-0.3,4.9-0.4,7.4-0.4c0,0,0,0,0,0c13.2,0,25.5,3.6,36.1,9.9
	c2.6,1.6,5.1,3.3,7.5,5.1c1.1-0.6,2.2-1.2,3.3-1.8c1.4-0.7,2.9-1.4,4.3-2c1.5-0.6,3-1.1,4.5-1.6c1.8-0.6,3.7-1.1,5.6-1.5
	c1.3-0.3,2.6-0.5,3.9-0.7c1.3-0.2,2.6-0.3,4-0.4s2.7-0.1,4-0.1c0.9,0,1.9,0,2.8,0.1c1.8,0.1,3.6,0.3,5.4,0.5c3.6,0.5,7,1.3,10.4,2.4
	c0.8,0.3,1.7,0.6,2.5,0.9c0.6-1.9,1.1-3.8,1.6-5.7c0.5-1.9,1-3.9,1.5-5.8c0.3-1.2,0.5-2.3,0.8-3.5c0.2-0.9,0.4-1.7,0.5-2.5
	c0.5-2.6,1-5.1,1.4-7.6c0.7-4.4,1.3-8.8,1.7-12.9C295.8,177.1,289.8,176.2,283.5,176.2z"/>
</svg>
