<svg id="Layer_1" data-name="Layer 1" xmlns="http://www.w3.org/2000/svg" viewBox="0 0 360 108"><defs><style>.cls-1{fill:#4ac1e0;}.cls-2{fill:#fff;}</style></defs><title>Armory-white</title><rect class="cls-1" x="78.99" y="20.3" width="14.06" height="14.06"/><rect class="cls-1" x="97.72" y="20.31" width="9.39" height="8.7"/><rect class="cls-1" x="88.85" y="8.88" width="8.42" height="7.11"/><rect class="cls-1" x="101.75" y="10.31" width="5.36" height="4.78"/><path class="cls-2" d="M10.74,27.88c14.7.75,27.05-4.14,37.4-14.86,9.23,11.27,21.71,15.54,36,14.85.17,2.63.45,7.16.47,9.69,0,5.06.09,8.13-.19,13.17-.43,8.05-1.57,16-4.82,23.48a43,43,0,0,1-11.35,15.2,61.64,61.64,0,0,1-20.51,11.5,1.2,1.2,0,0,1-.75,0A61.69,61.69,0,0,1,28.33,90.7a45.35,45.35,0,0,1-16.25-27,111.3,111.3,0,0,1-2-17.84,134.08,134.08,0,0,1,.59-17.7C10.71,28.11,10.71,28.17,10.74,27.88Zm8.38,8.87c0,2.79,0,5.48,0,8.16A89.94,89.94,0,0,0,20.7,61.12,36.51,36.51,0,0,0,27.47,77C32.61,83.67,39.32,88.18,47,91.31a1.5,1.5,0,0,0,1.06-.09c2.52-1.23,5.1-2.36,7.52-3.76,9-5.19,15.21-12.55,17.78-22.75A95,95,0,0,0,75.77,41.3V36.76A50.32,50.32,0,0,1,48.1,25.5,56.6,56.6,0,0,1,19.12,36.75Z"/><path class="cls-1" d="M48.12,38.78l9.58,11.9q4.59,5.72,9.16,11.45a1.38,1.38,0,0,1,.27,1,23.17,23.17,0,0,1-3.93,8.11L48.09,52.44l-15,18.74A36.26,36.26,0,0,1,29.36,64,2.55,2.55,0,0,1,30,61.11c2.2-2.69,4.42-5.38,6.61-8.09q5.61-6.94,11.19-13.94C47.88,39,48,38.93,48.12,38.78Z"/><path class="cls-2" d="M139.41,55.64V70.91q0,6.56-4.24,9.72t-13.11,3.15c-5.91,0-10.29-1-13.11-3.07s-4.24-5.24-4.24-9.56q0-12.47,16.23-12.47H129v-3a4,4,0,0,0-1.92-3.79q-1.92-1.08-6.4-1.08a52.53,52.53,0,0,0-7,.48c-1.76.26-3,.14-3.56-.36s-.92-1.64-.92-3.4v-.32a5.47,5.47,0,0,1,.84-3.52,5.88,5.88,0,0,1,3.48-1.36,64.18,64.18,0,0,1,6.47-.4q9.84,0,14.59,3.28T139.41,55.64ZM129,70.35V66.52h-8.24q-5.67,0-5.67,4.39c.16,1.71.74,2.84,1.75,3.4a10.64,10.64,0,0,0,5,.76,10,10,0,0,0,5.24-.92C128.23,73.48,128.86,72.22,129,70.35Z"/><path class="cls-2" d="M156.92,57.24V78.35c0,1.81-.3,3-.88,3.59s-1.79.88-3.6.88h-1.52c-1.81,0-3-.29-3.6-.88s-.88-1.78-.88-3.59V56.44q0-7.11,4.24-10.83c2.82-2.48,7-3.72,12.39-3.72H164a3.89,3.89,0,0,1,3.2,1.12,6.76,6.76,0,0,1,.88,4v.88c0,1.7-.27,2.8-.8,3.28s-1.63.66-3.28.56h-.88c-2.34,0-4,.4-4.83,1.19S156.92,55.16,156.92,57.24Z"/><path class="cls-2" d="M184.1,58V78.35c0,1.81-.3,3-.88,3.59s-1.79.88-3.6.88H178.1c-1.81,0-3-.29-3.6-.88s-.88-1.78-.88-3.59V58q0-7.83,4.32-12t12.79-4.16q8.4,0,11.83,5.12c2.46-3.41,6.37-5.12,11.76-5.12q8.63,0,12.79,4T231.26,58V78.35c0,1.81-.29,3-.87,3.59s-1.79.88-3.6.88h-1.52c-1.81,0-3-.29-3.6-.88s-.88-1.78-.88-3.59V58q0-3.6-1.36-5c-.9-.9-2.61-1.35-5.11-1.35q-4,0-5.4,1.35t-1.4,5V78.35c0,1.81-.29,3-.88,3.59s-1.78.88-3.6.88h-1.19c-1.82,0-3-.29-3.6-.88s-.88-1.78-.88-3.59V58q0-3.6-1.4-5t-5.24-1.35q-3.75,0-5.19,1.39T184.1,58Z"/><path class="cls-2" d="M257.49,83.78q-9.77,0-14.47-4.39T238.3,66v-6.4q0-8.55,4.92-13.15t14.27-4.6q9.75,0,14.39,4.4t4.63,13.35V66q0,8.63-4.83,13.19T257.49,83.78ZM266,66v-6.4q0-4.39-1.84-6.16c-1.23-1.17-3.46-1.75-6.71-1.75s-5.52.6-6.8,1.79-1.92,3.24-1.92,6.12V66q0,4.3,1.92,6.11c1.28,1.2,3.54,1.8,6.8,1.8s5.48-.59,6.71-1.76S266,69,266,66Z"/><path class="cls-2" d="M294,57.24V78.35c0,1.81-.29,3-.88,3.59s-1.79.88-3.6.88H288c-1.81,0-3-.29-3.59-.88s-.88-1.78-.88-3.59V56.44q0-7.11,4.23-10.83t12.4-3.72h.88A3.87,3.87,0,0,1,304.25,43a6.69,6.69,0,0,1,.88,4v.88c0,1.7-.27,2.8-.8,3.28s-1.62.66-3.27.56h-.88q-3.53,0-4.84,1.19T294,57.24Z"/><path class="cls-2" d="M320.72,47.25,326,71.39a5.12,5.12,0,0,0,1.24,2.72,3.86,3.86,0,0,0,2.51.64,2.32,2.32,0,0,0,1.84-.72,6.49,6.49,0,0,0,1.12-2.64L338,47.25a6.56,6.56,0,0,1,1.72-3.52,6,6,0,0,1,3.72-.88h1.75c1.82,0,2.95.3,3.4.88s.49,1.76.12,3.52l-8.15,35.57q-1.85,8.4-6.12,12.72a19.27,19.27,0,0,1-11.15,5.35q-2.88.4-3.84-.24c-.64-.43-1.14-1.57-1.52-3.44l-.08-.4c-.42-1.7-.44-2.87,0-3.51s1.43-1.15,3.08-1.52q7.11-1.61,8.71-8.32a9.94,9.94,0,0,1-3.27.32q-4.63,0-6.84-2.43t-3.64-8.76L310,47.25c-.38-1.76-.33-2.93.12-3.52s1.58-.88,3.4-.88h1.75a6,6,0,0,1,3.72.88A6.56,6.56,0,0,1,320.72,47.25Z"/></svg>